<svg width="284" height="208" viewBox="0 0 284 208" fill="none" xmlns="http://www.w3.org/2000/svg">
<path d="M206.521 177.146H74.1964C59.4872 177.146 47.5561 165.206 47.5561 150.486V80.484C47.5561 65.7637 59.4872 53.8236 74.1964 53.8236H206.521C221.23 53.8236 233.161 65.7637 233.161 80.484V150.515C233.132 165.235 221.23 177.146 206.521 177.146Z" fill="#FFE794"/>
<path d="M177.92 186.715L69.3999 186.306C52.5852 186.247 39.0165 172.551 39.075 155.724L39.3674 74.2211C39.4259 57.3937 53.1116 43.8148 69.9262 43.8734L211.287 44.4001C228.101 44.4587 241.67 58.1546 241.611 74.982L241.319 156.485C241.26 173.312 227.575 186.891 210.76 186.832L192.396 186.774" stroke="#374151" stroke-width="7.5" stroke-miterlimit="10" stroke-linecap="round" stroke-linejoin="round"/>
<path d="M213.509 74.3969C213.363 73.6653 212.603 72.524 211.199 72.524L69.8386 71.9972C69.6047 71.9972 68.8444 71.9972 68.1718 72.6996C67.47 73.4019 67.47 74.1335 67.47 74.3677L67.1775 155.87C67.1775 156.046 67.2068 156.222 67.236 156.368C67.3822 157.1 68.1425 158.241 69.5462 158.241L210.906 158.768C212.222 158.768 213.275 157.714 213.275 156.397L213.567 75.0634C213.567 74.951 213.557 74.8387 213.547 74.7267C213.535 74.6094 213.529 74.4964 213.509 74.3969Z" stroke="#EE6123" stroke-width="5" stroke-miterlimit="10" stroke-linecap="round" stroke-linejoin="round"/>
<path d="M103.491 126.038C101.72 126.038 100.003 125.803 98.3389 125.334C96.6962 124.843 95.3735 124.214 94.3709 123.446L96.1309 119.542C97.0909 120.246 98.2322 120.811 99.5549 121.238C100.878 121.664 102.2 121.878 103.523 121.878C104.995 121.878 106.083 121.664 106.787 121.238C107.491 120.79 107.843 120.203 107.843 119.478C107.843 118.944 107.63 118.507 107.203 118.166C106.798 117.803 106.264 117.515 105.603 117.302C104.963 117.088 104.088 116.854 102.979 116.598C101.272 116.192 99.8749 115.787 98.7869 115.382C97.6989 114.976 96.7602 114.326 95.9709 113.43C95.2029 112.534 94.8189 111.339 94.8189 109.846C94.8189 108.544 95.1709 107.371 95.8749 106.326C96.5789 105.259 97.6349 104.416 99.0429 103.798C100.472 103.179 102.211 102.87 104.259 102.87C105.688 102.87 107.086 103.04 108.451 103.382C109.816 103.723 111.011 104.214 112.035 104.854L110.435 108.79C108.366 107.616 106.296 107.03 104.227 107.03C102.776 107.03 101.699 107.264 100.995 107.734C100.312 108.203 99.9709 108.822 99.9709 109.59C99.9709 110.358 100.366 110.934 101.155 111.318C101.966 111.68 103.192 112.043 104.835 112.406C106.542 112.811 107.939 113.216 109.027 113.622C110.115 114.027 111.043 114.667 111.811 115.542C112.6 116.416 112.995 117.6 112.995 119.094C112.995 120.374 112.632 121.547 111.907 122.614C111.203 123.659 110.136 124.491 108.707 125.11C107.278 125.728 105.539 126.038 103.491 126.038ZM127.385 126.038C125.06 126.038 122.958 125.536 121.081 124.534C119.225 123.531 117.764 122.155 116.697 120.406C115.652 118.635 115.129 116.651 115.129 114.454C115.129 112.256 115.652 110.283 116.697 108.534C117.764 106.763 119.225 105.376 121.081 104.374C122.958 103.371 125.06 102.87 127.385 102.87C129.71 102.87 131.801 103.371 133.657 104.374C135.513 105.376 136.974 106.763 138.041 108.534C139.108 110.283 139.641 112.256 139.641 114.454C139.641 116.651 139.108 118.635 138.041 120.406C136.974 122.155 135.513 123.531 133.657 124.534C131.801 125.536 129.71 126.038 127.385 126.038ZM127.385 121.622C128.708 121.622 129.902 121.323 130.969 120.726C132.036 120.107 132.868 119.254 133.465 118.166C134.084 117.078 134.393 115.84 134.393 114.454C134.393 113.067 134.084 111.83 133.465 110.742C132.868 109.654 132.036 108.811 130.969 108.214C129.902 107.595 128.708 107.286 127.385 107.286C126.062 107.286 124.868 107.595 123.801 108.214C122.734 108.811 121.892 109.654 121.273 110.742C120.676 111.83 120.377 113.067 120.377 114.454C120.377 115.84 120.676 117.078 121.273 118.166C121.892 119.254 122.734 120.107 123.801 120.726C124.868 121.323 126.062 121.622 127.385 121.622ZM157.977 120.854H147.577L145.593 125.654H140.281L150.265 103.254H155.385L165.401 125.654H159.961L157.977 120.854ZM156.345 116.918L152.793 108.342L149.241 116.918H156.345ZM177.421 103.254C179.405 103.254 181.122 103.584 182.573 104.246C184.045 104.907 185.175 105.846 185.965 107.062C186.754 108.278 187.149 109.718 187.149 111.382C187.149 113.024 186.754 114.464 185.965 115.702C185.175 116.918 184.045 117.856 182.573 118.518C181.122 119.158 179.405 119.478 177.421 119.478H172.909V125.654H167.725V103.254H177.421ZM177.133 115.254C178.69 115.254 179.874 114.923 180.685 114.262C181.495 113.579 181.901 112.619 181.901 111.382C181.901 110.123 181.495 109.163 180.685 108.502C179.874 107.819 178.69 107.478 177.133 107.478H172.909V115.254H177.133Z" fill="#EE6123"/>
<path d="M33.4515 185.527C35.557 193.428 30.8781 201.564 22.9826 203.671C15.087 205.778 6.95744 201.096 4.85195 193.194C2.74646 185.293 7.42532 177.157 15.3209 175.05C23.2165 172.914 31.3168 177.596 33.4515 185.527Z" fill="#F6F8FF" stroke="#374151" stroke-width="7" stroke-miterlimit="10" stroke-linecap="round" stroke-linejoin="round"/>
<path d="M20.9607 181.283C21.8563 181.419 22.7519 181.718 23.5661 182.207C27.1756 184.298 28.424 188.915 26.3343 192.527" stroke="#374151" stroke-width="4" stroke-miterlimit="10" stroke-linecap="round" stroke-linejoin="round"/>
<path d="M15.5601 182.505C15.7229 182.397 15.9129 182.288 16.0757 182.18L15.5601 182.505Z" fill="#FCD8C7"/>
<path d="M15.5601 182.505C15.7229 182.397 15.9129 182.288 16.0757 182.18" stroke="#374151" stroke-width="4" stroke-miterlimit="10" stroke-linecap="round" stroke-linejoin="round"/>
<path d="M239.669 38.9068C242.273 22.7915 231.329 7.61552 215.226 5.01018C199.123 2.40483 183.958 13.3568 181.355 29.472C178.751 45.5873 189.695 60.7633 205.798 63.3686C221.901 65.974 237.066 55.022 239.669 38.9068Z" fill="#F6F8FF" stroke="#374151" stroke-width="7" stroke-miterlimit="10" stroke-linecap="round" stroke-linejoin="round"/>
<path d="M212.163 13.9353C216.784 14.3157 221.316 16.2765 224.855 19.8176C232.78 27.7483 232.78 40.6249 224.855 48.5557" stroke="#374151" stroke-width="5" stroke-miterlimit="10" stroke-linecap="round" stroke-linejoin="round"/>
<path d="M203.801 14.9884C204.327 14.8128 204.853 14.6372 205.38 14.5202L203.801 14.9884Z" fill="#FCD8C7"/>
<path d="M203.801 14.9884C204.327 14.8128 204.853 14.6372 205.38 14.5202" stroke="#374151" stroke-width="5" stroke-miterlimit="10" stroke-linecap="round" stroke-linejoin="round"/>
<path d="M279.839 50.423C281.97 58.4139 277.211 66.6534 269.219 68.7843C261.228 70.9152 252.987 66.1561 250.856 58.1653C248.725 50.1744 253.485 41.9349 261.476 39.804C269.468 37.6731 277.708 42.3966 279.839 50.423Z" stroke="#374151" stroke-width="7" stroke-miterlimit="10" stroke-linecap="round" stroke-linejoin="round"/>
<path d="M267.229 47.0927C268.048 47.2098 268.838 47.5024 269.569 47.9121C272.815 49.7851 273.926 53.9407 272.054 57.1891" fill="#5CA4A9"/>
<path d="M267.229 47.0927C268.048 47.2098 268.838 47.5024 269.569 47.9121C272.815 49.7851 273.926 53.9407 272.054 57.1891" stroke="#374151" stroke-width="4" stroke-miterlimit="10" stroke-linecap="round" stroke-linejoin="round"/>
<path d="M262.346 48.2045C262.493 48.0874 262.668 47.9996 262.814 47.9118L262.346 48.2045Z" fill="#5CA4A9"/>
<path d="M262.346 48.2045C262.493 48.0874 262.668 47.9996 262.814 47.9118" stroke="#374151" stroke-width="4" stroke-miterlimit="10" stroke-linecap="round" stroke-linejoin="round"/>
</svg>
