<svg width="193" height="245" viewBox="0 0 193 245" fill="none" xmlns="http://www.w3.org/2000/svg">
<path d="M96.297 187.806C96.297 202.353 87.0423 215.74 72.6083 222.249H34.2027C19.7687 215.712 10.514 202.325 10.514 187.806C10.514 181.013 12.4951 174.561 16.0329 168.929H90.7781C94.2876 174.561 96.297 181.013 96.297 187.806Z" fill="#FFE794"/>
<path d="M25.7115 183.108C23.4138 183.108 21.5511 181.245 21.5511 178.948C21.5511 176.65 23.4138 174.787 25.7115 174.787C28.0092 174.787 29.8719 176.65 29.8719 178.948C29.8719 181.245 28.0092 183.108 25.7115 183.108Z" fill="#F6F8FF"/>
<path d="M53.3904 147.986C53.3904 149.797 54.8621 151.269 56.6734 151.269C58.4847 151.269 59.9564 149.797 59.9564 147.986C59.9564 146.174 58.4847 144.703 56.6734 144.703C54.8621 144.703 53.3904 146.174 53.3904 147.986Z" fill="#FFE794"/>
<path d="M46.2582 165.589C42.3036 165.589 39.0978 162.383 39.0978 158.429C39.0978 154.474 42.3036 151.268 46.2582 151.268C50.2127 151.268 53.4185 154.474 53.4185 158.429C53.4185 162.383 50.2127 165.589 46.2582 165.589Z" fill="#FFE794"/>
<path d="M25.9555 193.807C24.8815 189.259 27.698 184.701 32.2463 183.627C36.7946 182.553 41.3524 185.37 42.4264 189.918C43.5004 194.466 40.6839 199.024 36.1356 200.098C31.5872 201.172 27.0295 198.356 25.9555 193.807Z" fill="#F6F8FF"/>
<path d="M32.7588 232.382H74.0512C74.4758 232.382 74.9003 232.297 75.2682 232.127C94.1739 224.231 106.4 206.854 106.4 187.806C106.4 173.797 99.8342 160.467 88.3437 151.212C86.9852 150.108 84.9757 150.335 83.872 151.693C82.7682 153.052 82.9946 155.061 84.3531 156.165C94.3154 164.203 100.032 175.721 100.032 187.806C100.032 204.08 89.589 219.023 73.372 226.014H33.3814C17.1644 219.023 6.72103 204.08 6.72103 187.806C6.72103 169.382 19.7116 153.193 39.0418 147.533C40.4003 147.137 41.3342 145.891 41.3342 144.476V118.608C41.3342 116.854 39.9191 115.438 38.1644 115.438H35.1361C34.2305 115.438 33.4663 114.703 33.4663 113.769C33.4663 112.863 34.2022 112.099 35.1361 112.099H71.6173C72.5229 112.099 73.2871 112.835 73.2871 113.769C73.2871 114.674 72.5512 115.438 71.6173 115.438H68.589C66.8342 115.438 65.4191 116.854 65.4191 118.608V144.476C65.4191 145.891 66.3531 147.137 67.7116 147.533C69.7776 148.127 71.8154 148.891 73.7682 149.74C75.3814 150.448 77.2493 149.712 77.9569 148.099C78.6644 146.486 77.9286 144.618 76.3154 143.91C74.8437 143.259 73.3154 142.665 71.7588 142.127V121.778C76.1173 121.693 79.6267 118.127 79.6267 113.74C79.6267 109.325 76.0323 105.703 71.589 105.703H35.1361C30.721 105.703 27.0984 109.297 27.0984 113.74C27.0984 118.099 30.6078 121.665 34.9663 121.778V142.127C14.1644 149.174 0.353108 167.259 0.353108 187.806C0.353108 206.854 12.5795 224.259 31.4852 232.127C31.938 232.297 32.3342 232.382 32.7588 232.382Z" fill="#374151"/>
<rect x="41.3476" y="95.2928" width="23" height="11" fill="#FBFBFB"/>
<rect x="41.9999" y="94.9998" width="26" height="13" fill="#EE6123"/>
<path d="M41.5043 112.127H65.3062C67.0609 112.127 68.476 110.712 68.476 108.957V94.5798C68.476 92.8251 67.0609 91.41 65.3062 91.41H41.476C39.7213 91.41 38.3062 92.8251 38.3062 94.5798V108.957C38.3062 110.684 39.7213 112.127 41.5043 112.127ZM62.1364 105.759H44.6741V97.7496H62.1364V105.759Z" fill="#374151"/>
<path d="M113.901 193.07H153.835C154.372 193.07 154.882 192.957 155.363 192.731C173.108 184.41 184.57 166.41 184.57 146.882C184.57 126.986 173.136 109.212 155.221 100.919V53.2308C155.221 51.2497 153.608 49.6364 151.627 49.6364H116.193C114.212 49.6364 112.599 51.2497 112.599 53.2308V62.6836C112.599 64.6647 114.212 66.278 116.193 66.278C118.174 66.278 119.787 64.6647 119.787 62.6836V56.8251H148.033V103.269C148.033 104.74 148.91 106.042 150.269 106.608C166.74 113.316 177.382 129.108 177.382 146.882C177.382 163.382 167.844 178.58 153.042 185.882H114.75C99.9478 178.608 90.4101 163.382 90.4101 146.882C90.4101 129.136 101.052 113.316 117.523 106.608C118.882 106.042 119.759 104.74 119.759 103.269V76.3251C119.759 74.344 118.146 72.7308 116.165 72.7308C114.184 72.7308 112.57 74.344 112.57 76.3251V100.919C94.6554 109.212 83.2214 127.014 83.2214 146.882C83.2214 166.41 94.6837 184.41 112.429 192.731C112.853 192.957 113.363 193.07 113.901 193.07Z" fill="#374151"/>
<path d="M171.353 135.306C172.485 138.986 173.08 142.863 173.08 146.882C173.08 161.429 164.844 174.872 151.967 181.608H115.712C102.834 174.872 94.5986 161.429 94.5986 146.882C94.5986 142.891 95.1929 138.986 96.325 135.306H133.839H171.353Z" fill="#9ECE6A"/>
<path d="M157.147 161.882C151.816 161.882 147.496 157.561 147.496 152.231C147.496 146.901 151.816 142.58 157.147 142.58C162.477 142.58 166.797 146.901 166.797 152.231C166.797 157.561 162.477 161.882 157.147 161.882Z" fill="#F6F8FF"/>
<path d="M123.381 130.438C119.927 130.438 117.127 127.638 117.127 124.183C117.127 120.729 119.927 117.929 123.381 117.929C126.836 117.929 129.636 120.729 129.636 124.183C129.636 127.638 126.836 130.438 123.381 130.438Z" fill="#9ECE6A"/>
<path d="M133.768 110.146C133.768 112.156 135.41 113.797 137.419 113.797C139.429 113.797 141.07 112.156 141.07 110.146C141.07 108.137 139.429 106.495 137.419 106.495C135.41 106.495 133.768 108.108 133.768 110.146Z" fill="#9ECE6A"/>
<path d="M85.7969 176.344H181.938C187.684 176.344 192.353 171.674 192.353 165.929V164.203C192.353 158.457 187.684 153.788 181.938 153.788H85.7969C80.0516 153.788 75.3818 158.457 75.3818 164.203V165.929C75.3535 171.674 80.0516 176.344 85.7969 176.344ZM181.938 160.495C183.976 160.495 185.646 162.165 185.646 164.203V165.929C185.646 167.967 183.976 169.637 181.938 169.637H85.7969C83.7591 169.637 82.0893 167.967 82.0893 165.929V164.203C82.0893 162.165 83.7591 160.495 85.7969 160.495H181.938Z" fill="#374151"/>
<path d="M181.062 233.089C182.93 233.089 184.43 231.589 184.43 229.721V173.004C184.43 171.136 182.93 169.636 181.062 169.636C179.194 169.636 177.694 171.136 177.694 173.004V229.721C177.722 231.561 179.222 233.089 181.062 233.089Z" fill="#374151"/>
<path d="M86.6455 233.089C88.5134 233.089 90.0134 231.589 90.0134 229.721V173.004C90.0134 171.136 88.5134 169.636 86.6455 169.636C84.7776 169.636 83.2776 171.136 83.2776 173.004V229.721C83.2776 231.561 84.7776 233.089 86.6455 233.089Z" fill="#374151"/>
<path d="M133.854 244.693C135.721 244.693 137.221 243.193 137.221 241.325V173.004C137.221 171.136 135.721 169.636 133.854 169.636C131.986 169.636 130.486 171.136 130.486 173.004V241.353C130.486 243.193 132.014 244.693 133.854 244.693Z" fill="#374151"/>
<path d="M142.004 31.0704C150.523 31.0704 157.457 24.1364 157.457 15.6175C157.457 7.09867 150.523 0.164703 142.004 0.164703C133.485 0.164703 126.551 7.09867 126.551 15.6175C126.551 24.1647 133.485 31.0704 142.004 31.0704ZM142.004 5.57036C147.551 5.57036 152.08 10.0987 152.08 15.6458C152.08 21.193 147.551 25.7213 142.004 25.7213C136.457 25.7213 131.929 21.193 131.929 15.6458C131.929 10.0987 136.457 5.57036 142.004 5.57036Z" fill="#374151"/>
<path d="M118.853 40.5796C123.58 40.5796 127.457 36.7306 127.457 31.9759C127.457 27.2495 123.608 23.3721 118.853 23.3721C114.127 23.3721 110.249 27.2212 110.249 31.9759C110.278 36.7306 114.127 40.5796 118.853 40.5796ZM118.853 27.8155C121.146 27.8155 123.014 29.6834 123.014 31.9759C123.014 34.2683 121.146 36.1363 118.853 36.1363C116.561 36.1363 114.693 34.2683 114.693 31.9759C114.693 29.6834 116.561 27.8155 118.853 27.8155Z" fill="#374151"/>
<path d="M140.617 9.53281C139.853 9.64601 139.089 9.90073 138.381 10.3253C135.296 12.1083 134.249 16.0422 136.032 19.1271" stroke="#374151" stroke-width="3" stroke-miterlimit="10" stroke-linecap="round" stroke-linejoin="round"/>
<path d="M145.259 10.58C145.117 10.4951 144.976 10.3819 144.806 10.297L145.259 10.58Z" fill="#FCD8C7"/>
<path d="M145.259 10.58C145.117 10.4951 144.976 10.3819 144.806 10.297" stroke="#374151" stroke-width="3" stroke-miterlimit="10" stroke-linecap="round" stroke-linejoin="round"/>
</svg>
